<?xml version="1.0" encoding="utf-8"?>
<svg viewBox="205.794 104.531 83.025 112.189" xmlns="http://www.w3.org/2000/svg">
  <defs>
    <clipPath id="clippath68" transform="">
      <path d="M 158.669 171.696 C 137.063 171.696 129.171 175.486 129.171 175.486 L 129.171 175.486 C 129.171 175.486 126.559 169.089 121.891 163.003 L 121.891 163.003 C 117.221 156.918 108.171 149.271 108.171 149.271 L 108.171 149.271 C 108.171 149.271 123.247 160.975 130.794 160.35 L 130.794 160.35 C 138.342 159.727 134.937 151.768 128.255 136.164 L 128.255 136.164 C 121.573 120.56 108.211 92.477 108.211 92.477 L 108.211 92.477 C 108.211 92.477 111.335 89.044 113.376 82.958 L 113.376 82.958 C 115.416 76.873 114.087 63.297 114.087 63.297 L 114.087 63.297 C 114.087 63.297 129.116 108.077 132.349 117.907 L 132.349 117.907 C 135.581 127.738 144.089 148.96 147.082 156.293 L 147.082 156.293 C 149.587 162.429 160.118 162.429 157.613 156.293 L 157.613 156.293 C 154.62 148.96 145.801 127.738 141.007 117.907 L 141.007 117.907 C 136.214 108.077 117.13 63.297 117.13 63.297 L 117.13 63.297 C 117.13 63.297 126.884 76.873 133.893 82.958 L 133.893 82.958 C 140.902 89.044 146.83 92.477 146.83 92.477 L 146.83 92.477 C 146.83 92.477 153.949 120.56 160.007 136.164 L 160.007 136.164 C 166.065 151.768 169.158 159.727 177.214 160.35 L 177.214 160.35 C 185.271 160.975 190.793 149.271 190.793 149.271 L 190.793 149.271 C 190.793 149.271 187.985 156.918 188.285 163.003 L 188.285 163.003 C 188.584 169.089 191.196 175.486 191.196 175.486 L 191.196 175.486 C 191.196 175.486 180.276 171.696 158.669 171.696" style="fill: none; clip-rule: nonzero;"/>
    </clipPath>
    <linearGradient id="shading2" gradientUnits="userSpaceOnUse" x1="0" y1="0" x2="1" y2="0">
      <stop offset="0" style="stop-color: rgb(54, 109, 161);"/>
      <stop offset="0.1" style="stop-color: rgb(54, 109, 161);"/>
      <stop offset="0.2" style="stop-color: rgb(54, 109, 161);"/>
      <stop offset="0.3" style="stop-color: rgb(66, 108, 160);"/>
      <stop offset="0.4" style="stop-color: rgb(83, 106, 157);"/>
      <stop offset="0.5" style="stop-color: rgb(97, 103, 153);"/>
      <stop offset="0.6" style="stop-color: rgb(109, 100, 150);"/>
      <stop offset="0.7" style="stop-color: rgb(119, 96, 146);"/>
      <stop offset="0.8" style="stop-color: rgb(121, 95, 145);"/>
      <stop offset="0.9" style="stop-color: rgb(121, 95, 145);"/>
      <stop offset="1" style="stop-color: rgb(121, 95, 145);"/>
    </linearGradient>
  </defs>
  <g style="clip-path: url(#clippath68);" transform="matrix(1, 0, 0, -1, 97.622513, 280.017029)">
    <g transform="matrix(82.6223602 0 -33.7283579 -82.6223602 78.4864504 76.5560226)">
      <rect x="-1.552076031538903" y="-1.4750120561189197" width="5.097393394919244" height="2.4015895880931275" style="fill: url(#shading2);"/>
    </g>
  </g>
</svg>